<svg xmlns="http://www.w3.org/2000/svg" width="24" height="24" viewBox="0 0 24 24" fill="none" stroke="currentColor" stroke-width="1.4" stroke-linecap="round" stroke-linejoin="round">
  <title>capital discipline</title>
  <g transform="translate(0.25 0.2) scale(0.98)">
    <path d="M12 3 L19 6.5 V12.2 C19 16.6 16 20 12 21 C8 20 5 16.6 5 12.2 V6.5 Z"></path>
    <path d="M8.8 13.8 C8.8 15.1 10.1 16 12 16 C13.9 16 15.2 15.1 15.2 13.8 C15.2 12.5 14 12 12 11.6 C10 11.2 9 10.6 9 9.4 C9 8.1 10.2 7.3 12 7.3 C13.8 7.3 15 8.1 15 9.3"></path>
    <path d="M12 6.2 V17.1"></path>
  </g>
</svg>
